<?xml version="1.0" encoding="UTF-8" standalone="no"?>
<!DOCTYPE svg PUBLIC "-//W3C//DTD SVG 1.1//EN" "http://www.w3.org/Graphics/SVG/1.1/DTD/svg11.dtd">
<svg width="100%" height="100%" viewBox="0 0 1024 1024" version="1.1" xmlns="http://www.w3.org/2000/svg" xmlns:xlink="http://www.w3.org/1999/xlink" xml:space="preserve" xmlns:serif="http://www.serif.com/" style="fill-rule:evenodd;clip-rule:evenodd;stroke-linecap:round;stroke-linejoin:round;">
    <g transform="matrix(1.397,0,0,1.38753,-61.4679,-106.84)">
        <rect x="44" y="77" width="733" height="738" style="fill:url(#_Linear1);"/>
    </g>
    <g transform="matrix(28.5,0,0,28.5,170,168.279)">
        <g transform="matrix(0.0521739,0,0,0.0513007,-0.182609,-14.4488)">
            <path d="M406,408.303C406,377.781 381.634,353 351.622,353L115.378,353C85.366,353 61,377.781 61,408.303L61,635.697C61,666.219 85.366,691 115.378,691L351.622,691C381.634,691 406,666.219 406,635.697L406,408.303Z" style="fill:rgb(227,125,55);"/>
        </g>
        <g transform="matrix(0.0689655,0,0,0.0387466,-6.17241,-1.29636)">
            <path d="M423,166.022C423,137.31 409.904,114 393.773,114L133.227,114C117.096,114 104,137.31 104,166.022L104,173.978C104,202.69 117.096,226 133.227,226L393.773,226C409.904,226 423,202.69 423,173.978L423,166.022Z" style="fill:rgb(168,91,39);"/>
        </g>
        <g transform="matrix(1,0,0,1,2.66454e-15,-0.867925)">
            <path d="M10,12L14,12" style="fill:none;fill-rule:nonzero;stroke:rgb(80,60,46);stroke-width:2px;"/>
        </g>
    </g>
    <g transform="matrix(17.5961,0,0,17.5961,479.645,474.764)">
        <g transform="matrix(1,0,0,1,0.664151,1.21887)">
            <circle cx="11" cy="11" r="8" style="fill:url(#_Linear2);stroke:rgb(3,2,23);stroke-width:2.37px;"/>
        </g>
        <g transform="matrix(0.895438,-0.104562,-0.104562,0.895438,4.65971,4.65971)">
            <path d="M21,21L16.65,16.65" style="fill:none;fill-rule:nonzero;stroke:rgb(3,1,21);stroke-width:3.59px;"/>
        </g>
    </g>
    <defs>
        <linearGradient id="_Linear1" x1="0" y1="0" x2="1" y2="0" gradientUnits="userSpaceOnUse" gradientTransform="matrix(4.48833e-14,738,-733,4.51895e-14,137.772,77)"><stop offset="0" style="stop-color:rgb(248,226,207);stop-opacity:1"/><stop offset="1" style="stop-color:rgb(243,196,172);stop-opacity:1"/></linearGradient>
        <linearGradient id="_Linear2" x1="0" y1="0" x2="1" y2="0" gradientUnits="userSpaceOnUse" gradientTransform="matrix(1.14744e-15,18.7391,-18.7391,1.14744e-15,11,0.0447966)"><stop offset="0" style="stop-color:rgb(189,236,239);stop-opacity:1"/><stop offset="1" style="stop-color:rgb(56,240,248);stop-opacity:1"/></linearGradient>
    </defs>
</svg>
